<svg xmlns="http://www.w3.org/2000/svg" viewBox="0 0 64 64" role="img" aria-label="OpenClaw Admin">
  <defs>
    <linearGradient id="bg" x1="12" y1="8" x2="54" y2="56" gradientUnits="userSpaceOnUse">
      <stop offset="0" stop-color="#3aa0ff" />
      <stop offset="1" stop-color="#0071e3" />
    </linearGradient>
  </defs>
  <rect x="6" y="6" width="52" height="52" rx="16" fill="url(#bg)" />
  <path d="M22 24.5c0-4.1 3.4-7.5 7.5-7.5h5c4.1 0 7.5 3.4 7.5 7.5S38.6 32 34.5 32h-5c-4.1 0-7.5-3.4-7.5-7.5Zm4.5 0c0 1.7 1.3 3 3 3h5c1.7 0 3-1.3 3-3s-1.3-3-3-3h-5c-1.7 0-3 1.3-3 3Z" fill="#fff"/>
  <path d="M18 40.5c0-4.1 3.4-7.5 7.5-7.5h13c4.1 0 7.5 3.4 7.5 7.5S42.6 48 38.5 48h-13c-4.1 0-7.5-3.4-7.5-7.5Zm4.5 0c0 1.7 1.3 3 3 3h13c1.7 0 3-1.3 3-3s-1.3-3-3-3h-13c-1.7 0-3 1.3-3 3Z" fill="#fff" fill-opacity="0.92"/>
</svg>
